<svg width="1153" height="403" viewBox="0 0 1153 403" fill="none" xmlns="http://www.w3.org/2000/svg">
<rect y="368" width="241.662" height="40" rx="20" transform="rotate(-30 0 368)" fill="#D24520"/>
<path d="M74.0519 355.26L72.841 353.163L73.3165 341.842L75.1248 340.798L76.801 343.701L75.7307 344.319L75.4446 351.479L75.5014 351.578L82.9746 347.263L84.2068 349.397L74.0519 355.26ZM81.3765 353.984L79.7288 351.13L79.2418 350.173L74.153 341.359L76.6502 339.917L83.9229 352.514L81.3765 353.984ZM92.3586 348.012C91.2983 348.619 90.2376 348.884 89.1767 348.808C88.1198 348.729 87.1034 348.318 86.1275 347.575C85.1558 346.829 84.2742 345.767 83.4828 344.386C82.6898 343.013 82.2168 341.725 82.0641 340.523C81.9154 339.318 82.0748 338.245 82.5422 337.303C83.0113 336.354 83.7728 335.575 84.8266 334.967C85.8804 334.358 86.9334 334.089 87.9856 334.16C89.0418 334.228 90.0544 334.627 91.0231 335.358C91.9895 336.085 92.8672 337.137 93.6562 338.513C94.454 339.895 94.9308 341.194 95.0866 342.411C95.2464 343.625 95.0962 344.71 94.6359 345.664C94.1756 346.619 93.4165 347.402 92.3586 348.012ZM91.0837 345.804C91.8054 345.388 92.172 344.692 92.1835 343.718C92.1951 342.743 91.7797 341.532 90.9376 340.082C90.3859 339.127 89.8283 338.388 89.2645 337.866C88.7048 337.342 88.1543 337.023 87.6129 336.909C87.0756 336.793 86.567 336.873 86.0873 337.15C85.3697 337.565 85.0028 338.255 84.9865 339.221C84.9703 340.187 85.3732 341.387 86.1953 342.82C86.754 343.788 87.3168 344.54 87.8836 345.077C88.4521 345.607 89.0082 345.931 89.552 346.049C90.0934 346.163 90.604 346.081 91.0837 345.804ZM97.7154 341.598L96.5045 339.501L96.98 328.18L98.7883 327.136L100.464 330.039L99.3942 330.657L99.1081 337.817L99.1649 337.916L106.638 333.601L107.87 335.735L97.7154 341.598ZM105.04 340.322L103.392 337.468L102.905 336.511L97.8165 327.697L100.314 326.255L107.586 338.852L105.04 340.322ZM110.997 336.883L103.724 324.286L112.212 319.385L113.48 321.581L107.655 324.944L109.388 327.946L114.776 324.835L116.044 327.031L110.656 330.141L112.393 333.149L118.242 329.772L119.51 331.968L110.997 336.883ZM121.602 330.759L114.33 318.163L119.3 315.293C120.251 314.744 121.161 314.446 122.03 314.398C122.901 314.343 123.691 314.524 124.401 314.939C125.113 315.349 125.709 315.969 126.19 316.802C126.673 317.638 126.908 318.462 126.895 319.273C126.88 320.08 126.622 320.841 126.122 321.556C125.626 322.269 124.894 322.905 123.926 323.464L120.599 325.385L119.363 323.244L122.26 321.572C122.769 321.278 123.151 320.965 123.406 320.631C123.662 320.298 123.792 319.944 123.795 319.571C123.802 319.195 123.686 318.8 123.447 318.386C123.205 317.967 122.918 317.663 122.584 317.473C122.254 317.281 121.876 317.209 121.451 317.258C121.027 317.3 120.559 317.47 120.046 317.766L118.25 318.802L124.266 329.222L121.602 330.759ZM125.096 321.099L131.536 325.024L128.596 326.722L122.223 322.758L125.096 321.099ZM132.969 324.197L125.696 311.6L130.666 308.731C131.617 308.182 132.528 307.883 133.397 307.835C134.267 307.781 135.058 307.961 135.768 308.377C136.48 308.786 137.076 309.407 137.556 310.239C138.039 311.076 138.274 311.9 138.262 312.711C138.246 313.518 137.989 314.279 137.489 314.994C136.993 315.707 136.261 316.343 135.293 316.901L131.965 318.822L130.73 316.682L133.627 315.009C134.135 314.716 134.517 314.402 134.773 314.069C135.029 313.735 135.158 313.382 135.161 313.008C135.168 312.632 135.052 312.237 134.813 311.823C134.572 311.405 134.284 311.101 133.95 310.911C133.621 310.718 133.243 310.647 132.817 310.696C132.393 310.738 131.925 310.907 131.413 311.203L129.617 312.24L135.632 322.659L132.969 324.197ZM136.462 314.537L142.902 318.462L139.962 320.159L133.59 316.195L136.462 314.537ZM152.275 304.653C153.068 306.027 153.482 307.345 153.518 308.61C153.558 309.872 153.277 311.015 152.677 312.039C152.078 313.058 151.223 313.887 150.112 314.529C148.993 315.175 147.841 315.501 146.658 315.506C145.475 315.512 144.346 315.182 143.273 314.516C142.2 313.851 141.269 312.833 140.478 311.464C139.685 310.09 139.268 308.772 139.229 307.511C139.189 306.249 139.468 305.109 140.067 304.091C140.663 303.068 141.521 302.234 142.641 301.588C143.752 300.946 144.899 300.623 146.082 300.618C147.268 300.606 148.397 300.933 149.47 301.598C150.547 302.261 151.482 303.279 152.275 304.653ZM149.575 306.212C149.061 305.322 148.495 304.649 147.875 304.191C147.26 303.732 146.621 303.483 145.959 303.444C145.297 303.405 144.644 303.572 144.001 303.944C143.357 304.315 142.886 304.797 142.589 305.39C142.291 305.983 142.186 306.662 142.272 307.427C142.362 308.189 142.664 309.015 143.178 309.905C143.692 310.795 144.256 311.469 144.871 311.929C145.491 312.386 146.131 312.634 146.793 312.673C147.455 312.711 148.108 312.545 148.752 312.173C149.396 311.802 149.866 311.319 150.164 310.727C150.461 310.134 150.565 309.456 150.475 308.694C150.388 307.929 150.089 307.102 149.575 306.212ZM157.884 309.812L150.611 297.215L155.581 294.346C156.533 293.797 157.443 293.498 158.312 293.45C159.182 293.396 159.973 293.577 160.683 293.992C161.395 294.401 161.991 295.022 162.472 295.854C162.955 296.691 163.19 297.515 163.177 298.326C163.162 299.133 162.904 299.894 162.404 300.609C161.908 301.322 161.176 301.958 160.208 302.516L156.881 304.438L155.645 302.297L158.542 300.625C159.05 300.331 159.432 300.017 159.688 299.684C159.944 299.35 160.073 298.997 160.076 298.623C160.083 298.247 159.967 297.852 159.728 297.438C159.487 297.02 159.199 296.716 158.865 296.526C158.536 296.334 158.158 296.262 157.732 296.311C157.309 296.353 156.84 296.522 156.328 296.818L154.532 297.855L160.547 308.275L157.884 309.812ZM161.377 300.152L167.818 304.077L164.878 305.775L158.505 301.811L161.377 300.152Z" fill="black"/>
<rect x="883.353" width="278.311" height="40" rx="20" transform="rotate(15 883.353 0)" fill="#4DE0AE"/>
<path d="M970.776 48.0749L971.403 45.7355L979.744 38.0664L981.761 38.6069L980.894 41.8449L979.7 41.5251L974.434 46.3861L974.405 46.4958L982.74 48.7293L982.102 51.1098L970.776 48.0749ZM976.858 52.3516L977.711 49.1684L978.043 48.1472L980.677 38.3164L983.462 39.0627L979.698 53.1126L976.858 52.3516ZM988.846 55.8946C987.667 55.5738 986.729 55.0114 986.033 54.2072C985.341 53.4042 984.913 52.3949 984.749 51.1793C984.589 49.9649 984.717 48.59 985.134 47.0545C985.544 45.5224 986.12 44.2773 986.862 43.3192C987.609 42.3624 988.481 41.7161 989.477 41.3803C990.48 41.0411 991.569 41.029 992.744 41.344C993.92 41.6589 994.855 42.2133 995.549 43.0071C996.247 43.8022 996.681 44.8006 996.849 46.0025C997.018 47.1999 996.896 48.564 996.48 50.0949C996.067 51.6361 995.486 52.892 994.736 53.8626C993.99 54.8343 993.117 55.495 992.116 55.8445C991.116 56.1941 990.026 56.2108 988.846 55.8946ZM989.506 53.4317C990.31 53.6474 991.061 53.4149 991.759 52.734C992.456 52.0532 993.019 50.9026 993.448 49.2824C993.734 48.2168 993.862 47.3001 993.832 46.5324C993.807 45.7659 993.643 45.151 993.341 44.6876C993.043 44.2255 992.627 43.9227 992.092 43.7793C991.292 43.5649 990.544 43.7935 989.849 44.4652C989.155 45.1369 988.591 46.2702 988.159 47.8651C987.87 48.9445 987.736 49.8743 987.757 50.6545C987.784 51.4313 987.948 52.0537 988.249 52.5217C988.552 52.985 988.97 53.2884 989.506 53.4317ZM997.169 55.1469L997.796 52.8076L1006.14 45.1385L1008.15 45.6789L1007.29 48.9169L1006.09 48.5971L1000.83 53.4581L1000.8 53.5679L1009.13 55.8013L1008.5 58.1818L997.169 55.1469ZM1003.25 59.4236L1004.1 56.2404L1004.44 55.2192L1007.07 45.3885L1009.86 46.1348L1006.09 60.1846L1003.25 59.4236ZM1009.9 61.2039L1013.66 47.154L1023.13 49.6908L1022.47 52.1399L1015.97 50.3991L1015.08 53.7469L1021.09 55.3572L1020.43 57.8063L1014.42 56.196L1013.52 59.5507L1020.05 61.2988L1019.39 63.748L1009.9 61.2039ZM1021.72 64.3734L1025.49 50.3236L1031.03 51.8088C1032.09 52.0931 1032.95 52.5256 1033.6 53.1062C1034.25 53.6834 1034.68 54.37 1034.89 55.166C1035.1 55.9586 1035.09 56.8192 1034.84 57.7476C1034.59 58.6806 1034.17 59.4293 1033.59 59.9938C1033.01 60.5537 1032.29 60.9097 1031.43 61.0618C1030.57 61.2151 1029.61 61.1471 1028.53 60.8579L1024.81 59.8634L1025.45 57.4761L1028.69 58.3418C1029.25 58.4938 1029.74 58.5423 1030.16 58.4873C1030.58 58.4323 1030.92 58.2738 1031.19 58.0118C1031.46 57.751 1031.65 57.3897 1031.78 56.9278C1031.9 56.4613 1031.91 56.0428 1031.81 55.6724C1031.72 55.3033 1031.5 54.9855 1031.16 54.7191C1030.83 54.4494 1030.38 54.238 1029.81 54.0848L1027.81 53.548L1024.69 65.1693L1021.72 64.3734ZM1031.02 60.0127L1032.8 67.3421L1029.52 66.4634L1027.82 59.1542L1031.02 60.0127ZM1034.4 67.7704L1038.17 53.7206L1043.71 55.2058C1044.77 55.4901 1045.63 55.9226 1046.27 56.5032C1046.93 57.0804 1047.36 57.767 1047.57 58.563C1047.78 59.3556 1047.76 60.2162 1047.52 61.1446C1047.27 62.0776 1046.85 62.8263 1046.27 63.3908C1045.68 63.9507 1044.96 64.3067 1044.11 64.4588C1043.25 64.6121 1042.28 64.5441 1041.2 64.2549L1037.49 63.2604L1038.13 60.8731L1041.36 61.7388C1041.93 61.8908 1042.42 61.9393 1042.84 61.8843C1043.26 61.8293 1043.6 61.6708 1043.86 61.4088C1044.13 61.148 1044.33 60.7867 1044.46 60.3248C1044.58 59.8583 1044.59 59.4398 1044.49 59.0694C1044.39 58.7003 1044.18 58.3825 1043.84 58.1161C1043.51 57.8464 1043.06 57.635 1042.49 57.4818L1040.49 56.945L1037.37 68.5663L1034.4 67.7704ZM1043.7 63.4097L1045.48 70.7391L1042.2 69.8604L1040.5 62.5512L1043.7 63.4097ZM1061.87 67.602C1061.46 69.1341 1060.82 70.3597 1059.95 71.2789C1059.09 72.1993 1058.08 72.8094 1056.93 73.1094C1055.79 73.406 1054.6 73.3883 1053.36 73.0562C1052.11 72.7216 1051.07 72.1378 1050.23 71.3048C1049.39 70.4717 1048.82 69.4406 1048.53 68.2114C1048.24 66.9822 1048.31 65.6039 1048.71 64.0763C1049.13 62.5442 1049.76 61.3179 1050.63 60.3976C1051.49 59.4772 1052.49 58.8687 1053.64 58.5721C1054.78 58.2709 1055.98 58.2876 1057.23 58.6221C1058.47 58.9542 1059.51 59.5368 1060.35 60.3699C1061.19 61.1996 1061.76 62.229 1062.05 63.4582C1062.34 64.6886 1062.28 66.0699 1061.87 67.602ZM1058.86 66.795C1059.13 65.8026 1059.2 64.9258 1059.09 64.1647C1058.98 63.4048 1058.7 62.7771 1058.26 62.2815C1057.82 61.786 1057.24 61.442 1056.52 61.2496C1055.81 61.0572 1055.13 61.0654 1054.5 61.2742C1053.87 61.483 1053.32 61.8883 1052.84 62.4901C1052.36 63.0931 1051.99 63.8908 1051.73 64.8833C1051.46 65.8757 1051.38 66.7519 1051.49 67.5118C1051.61 68.2729 1051.89 68.9012 1052.33 69.3968C1052.77 69.8923 1053.35 70.2363 1054.06 70.4287C1054.78 70.6211 1055.46 70.6129 1056.09 70.4041C1056.71 70.1953 1057.27 69.7894 1057.74 69.1864C1058.22 68.5846 1058.6 67.7875 1058.86 66.795ZM1062.19 75.2165L1065.96 61.1667L1071.5 62.6519C1072.56 62.9362 1073.41 63.3687 1074.06 63.9493C1074.72 64.5265 1075.15 65.2131 1075.36 66.0091C1075.57 66.8017 1075.55 67.6623 1075.3 68.5907C1075.05 69.5237 1074.64 70.2724 1074.06 70.8369C1073.47 71.3968 1072.75 71.7528 1071.89 71.9049C1071.04 72.0582 1070.07 71.9902 1068.99 71.701L1065.28 70.7065L1065.92 68.3192L1069.15 69.1849C1069.72 69.3369 1070.21 69.3854 1070.63 69.3304C1071.04 69.2754 1071.39 69.1169 1071.65 68.8549C1071.92 68.5941 1072.12 68.2328 1072.24 67.7709C1072.37 67.3044 1072.38 66.8859 1072.28 66.5155C1072.18 66.1464 1071.97 65.8286 1071.63 65.5622C1071.3 65.2925 1070.85 65.0811 1070.28 64.9279L1068.28 64.3912L1065.16 76.0124L1062.19 75.2165ZM1071.49 70.8558L1073.27 78.1852L1069.99 77.3065L1068.29 69.9973L1071.49 70.8558Z" fill="black"/>
</svg>
