<svg width="186" height="273" viewBox="0 0 186 273" fill="none" xmlns="http://www.w3.org/2000/svg">
<rect x="0.724121" y="0.949524" width="184.574" height="271.176" rx="14.5" fill="#D24520" fill-opacity="0.3" stroke="white"/>
<path d="M18.7183 40.3118C18.7183 32.0275 25.434 25.3118 33.7183 25.3118L153.718 25.3118C162.002 25.3118 168.718 32.0275 168.718 40.3118V230.312C168.718 238.596 162.002 245.312 153.718 245.312H33.7183C25.434 245.312 18.7183 238.596 18.7183 230.312L18.7183 40.3118Z" fill="white"/>
<path d="M18 41.5365C18 33.2522 24.7157 26.5365 33 26.5365L153 26.5365C161.284 26.5365 168 33.2522 168 41.5365V231.536C168 239.821 161.284 246.536 153 246.536H33C24.7157 246.536 18 239.821 18 231.536L18 41.5365Z" fill="#D24520"/>
<path d="M61.928 197.735V198.935H76.04V197.735H61.928ZM68.344 191.575V206.279H69.608V191.575H68.344ZM74.008 192.359C73.448 193.607 72.456 195.335 71.656 196.391L72.696 196.871C73.496 195.863 74.52 194.247 75.304 192.871L74.008 192.359ZM62.856 192.967C63.768 194.135 64.696 195.735 65.048 196.743L66.216 196.215C65.816 195.191 64.872 193.639 63.944 192.487L62.856 192.967ZM67.752 198.311C66.424 200.775 63.864 203.319 61.56 204.551C61.832 204.791 62.232 205.255 62.44 205.559C64.792 204.119 67.32 201.463 68.792 198.727L67.752 198.311ZM70.136 198.247L69.112 198.679C70.616 201.319 73.208 203.991 75.56 205.415C75.768 205.079 76.168 204.615 76.472 204.375C74.136 203.175 71.496 200.631 70.136 198.247ZM77.832 197.463V198.647H92.184V197.463H77.832ZM84.776 193.863V195.031H90.456V193.863H84.776ZM84.056 191.559V198.023H85.304V191.559H84.056ZM84.056 198.263V206.279H85.304V198.263H84.056ZM84.952 200.935C86.76 201.447 89.176 202.327 90.408 202.935L91.032 201.863C89.736 201.239 87.304 200.439 85.544 199.975L84.952 200.935ZM94.936 193.095V194.199H97.384V200.919H94.936V202.039H98.504V193.095H94.936ZM94.232 193.095V203.575H95.352V193.095H94.232ZM99.912 192.599V203.735C99.912 205.543 100.488 205.975 102.28 205.975C102.696 205.975 105.768 205.975 106.2 205.975C107.88 205.975 108.264 205.239 108.456 203.047C108.12 202.983 107.64 202.791 107.352 202.583C107.224 204.407 107.064 204.855 106.152 204.855C105.512 204.855 102.84 204.855 102.328 204.855C101.272 204.855 101.096 204.663 101.096 203.751V192.599H99.912ZM100.488 192.599V193.719H106.648V201.015H107.816V192.599H100.488ZM100.456 198.887V199.991H107.08V198.887H100.456ZM103.272 192.999V199.239H104.376V192.999H103.272ZM109.832 197.463V198.647H124.184V197.463H109.832ZM116.776 193.863V195.031H122.456V193.863H116.776ZM116.056 191.559V198.023H117.304V191.559H116.056ZM116.056 198.263V206.279H117.304V198.263H116.056ZM116.952 200.935C118.76 201.447 121.176 202.327 122.408 202.935L123.032 201.863C121.736 201.239 119.304 200.439 117.544 199.975L116.952 200.935ZM62.552 212.799V213.887H75.432V212.799H62.552ZM63.352 215.183V216.223H74.728V215.183H63.352ZM61.912 217.583V218.671H76.072V217.583H61.912ZM61.8 220.143V221.215H76.232V220.143H61.8ZM68.344 213.407V218.367H69.576V213.407H68.344ZM64.6 210.975C65.176 211.583 65.72 212.463 65.928 213.071L67.048 212.559C66.792 211.967 66.232 211.135 65.64 210.543L64.6 210.975ZM72.12 210.543C71.784 211.151 71.192 212.047 70.712 212.591L71.768 212.959C72.232 212.431 72.84 211.663 73.352 210.927L72.12 210.543ZM68.28 218.463C67.928 221.663 67 223.439 61.592 224.223C61.816 224.479 62.104 224.975 62.2 225.279C67.944 224.351 69.112 222.207 69.544 218.463H68.28ZM69.896 220.463L68.792 220.687C69.864 223.487 72.04 224.831 75.736 225.311C75.88 224.975 76.2 224.463 76.472 224.207C72.968 223.871 70.808 222.767 69.896 220.463ZM82.248 217.167C82.12 219.247 81.864 221.295 81.192 222.639C81.448 222.783 81.88 223.055 82.056 223.215C82.76 221.759 83.096 219.567 83.272 217.295L82.248 217.167ZM81.848 214.095V215.215H87.832V214.095H81.848ZM84.264 210.799V225.039H85.384V210.799H84.264ZM86.168 217.359C86.552 218.879 86.904 220.847 87 222.143L87.976 221.951C87.88 220.639 87.512 218.719 87.096 217.183L86.168 217.359ZM88.296 211.503V212.591H92.12V211.503H88.296ZM87.912 215.919V217.007H92.344V215.919H87.912ZM85.848 211.343C86.376 212.031 86.936 212.975 87.176 213.583L88.024 213.151C87.784 212.543 87.208 211.631 86.648 210.959L85.848 211.343ZM89.768 216.255V223.855C89.768 224.063 89.704 224.127 89.464 224.143C89.24 224.143 88.504 224.143 87.672 224.111C87.832 224.463 87.976 224.959 88.024 225.279C89.144 225.279 89.88 225.263 90.328 225.071C90.776 224.879 90.904 224.527 90.904 223.871V216.255H89.768ZM80.344 210.575C79.752 211.663 78.584 212.975 77.48 213.791C77.688 214.015 77.992 214.431 78.152 214.687C79.352 213.743 80.664 212.287 81.448 210.975L80.344 210.575ZM79.384 216.943V225.295H80.504V216.031L80.36 215.983L79.384 216.943ZM80.808 213.791C79.992 215.551 78.632 217.263 77.256 218.383C77.48 218.639 77.832 219.199 77.96 219.439C79.432 218.143 80.952 216.143 81.896 214.159L80.808 213.791ZM100.936 211.071V213.007C100.936 214.127 100.696 215.455 99.16 216.447C99.4 216.607 99.864 217.023 100.024 217.247C101.736 216.111 102.088 214.415 102.088 213.023V211.071H100.936ZM104.84 211.071V215.023C104.84 216.159 105.128 216.479 106.104 216.479C106.312 216.479 107.016 216.479 107.224 216.479C108.088 216.479 108.376 215.983 108.472 214.111C108.168 214.031 107.688 213.855 107.464 213.679C107.432 215.215 107.368 215.423 107.096 215.423C106.936 215.423 106.408 215.423 106.28 215.423C106.024 215.423 105.976 215.359 105.976 215.007V211.071H104.84ZM101.8 218.623L100.728 218.959C102.008 222.095 104.392 224.303 107.72 225.279C107.88 224.975 108.232 224.495 108.504 224.239C105.288 223.423 102.904 221.375 101.8 218.623ZM106.28 217.503V217.695C105.32 221.247 102.424 223.407 99.192 224.223C99.416 224.479 99.72 224.991 99.848 225.279C103.352 224.255 106.36 221.951 107.496 217.759L106.728 217.455L106.52 217.503H106.28ZM99.896 217.503V218.591H106.744V217.503H99.896ZM101.416 211.071V212.143H105.416V211.071H101.416ZM94.36 215.407V216.367H99.128V215.407H94.36ZM94.44 211.135V212.095H99.096V211.135H94.44ZM94.36 217.551V218.511H99.128V217.551H94.36ZM93.608 213.231V214.223H99.688V213.231H93.608ZM94.936 219.711V220.703H98.072V223.375H94.936V224.383H99.128V219.711H94.936ZM94.344 219.711V225.119H95.384V219.711H94.344ZM115.944 216.047V217.231H124.536V216.047H115.944ZM119.704 210.607V225.279H120.92V210.607H119.704ZM110.36 215.407V216.367H115.352V215.407H110.36ZM110.456 211.135V212.095H115.368V211.135H110.456ZM110.36 217.551V218.511H115.352V217.551H110.36ZM109.608 213.231V214.223H115.976V213.231H109.608ZM110.92 219.711V220.703H114.232V223.375H110.92V224.383H115.304V219.711H110.92ZM110.344 219.711V225.119H111.416V219.711H110.344Z" fill="black"/>
<path d="M66.42 170.119V171.699H72.18V170.119H66.42ZM67.42 167.459V169.079H71.96V167.459H67.42ZM65.48 176.419V177.579H73.1V176.419H65.48ZM63.82 180.459V182.079H74.54V180.459H63.82ZM68.22 183.659C69.9 184.199 72.14 185.079 73.4 185.679L74.4 183.999C73.12 183.459 70.96 182.639 69.24 182.159L68.22 183.659ZM66.42 174.039H72.18V178.179H66.42V174.039ZM64.64 172.619V179.599H74.06V172.619H64.64ZM67.52 173.239V173.959C67.52 174.479 67.34 174.879 66.2 175.319C66.46 175.499 66.94 176.059 67.12 176.359C68.52 175.739 68.86 174.859 68.86 173.999V173.239H67.52ZM69.64 173.359V174.279C69.64 175.059 69.7 175.379 69.96 175.599C70.16 175.819 70.58 175.919 70.96 175.919C71.14 175.919 71.56 175.919 71.74 175.919C71.96 175.919 72.28 175.899 72.46 175.859C72.66 175.799 72.86 175.719 73 175.599C73.12 175.479 73.18 175.339 73.22 175.139C72.9 175.039 72.5 174.839 72.28 174.659C72.26 174.699 72.24 174.719 72.18 174.739C72.14 174.759 72.06 174.779 72 174.779C71.94 174.779 71.82 174.779 71.72 174.779C71.58 174.779 71.38 174.779 71.3 174.779C71.18 174.779 71.1 174.779 71.06 174.719C71.02 174.659 71 174.539 71 174.319V173.359H69.64ZM67.36 170.959V173.659H68.88V170.959H67.36ZM69.64 170.959V173.659H71.14V170.959H69.64ZM68.18 179.259C68.08 182.239 67.68 183.439 63.58 184.079C63.98 184.479 64.5 185.299 64.66 185.819C69.48 184.939 70.18 183.059 70.34 179.259H68.18ZM65.8 168.239C65.34 169.539 64.44 170.779 63.34 171.579C63.78 171.879 64.52 172.519 64.86 172.879C66.04 171.899 67.12 170.339 67.72 168.679L65.8 168.239ZM70.54 167.459V168.399H70.9C71.48 169.959 72.56 171.499 73.78 172.519C74.12 172.099 74.9 171.459 75.4 171.179C74.2 170.379 73.1 168.939 72.58 167.459H70.54ZM75.32 168.099V185.819H77.54V170.259H80.92V168.099H75.32ZM80.22 168.099V168.839C79.8 170.279 78.9 173.259 78.14 175.239C79.7 176.839 80.12 178.299 80.12 179.419C80.12 180.099 80 180.599 79.66 180.819C79.48 180.939 79.22 180.999 78.94 181.019C78.66 181.019 78.26 181.019 77.82 180.959C78.16 181.579 78.36 182.499 78.38 183.079C78.9 183.119 79.46 183.099 79.88 183.059C80.4 182.979 80.84 182.839 81.2 182.579C81.9 182.059 82.24 181.099 82.24 179.679C82.24 178.359 81.9 176.779 80.28 174.959C81.04 173.219 81.88 170.919 82.56 168.999L80.96 168.019L80.62 168.099H80.22ZM90.56 167.759V169.919H99.82V167.759H90.56ZM89.46 174.299V176.579H100.84V174.299H89.46ZM91.6 172.239C93.64 173.019 96.44 174.319 97.78 175.179L99.18 173.219C97.74 172.379 94.88 171.179 92.92 170.519L91.6 172.239ZM100.02 174.279V174.679C99.56 176.299 98.74 178.319 98.06 179.539L100.08 180.259C100.94 178.859 101.88 176.699 102.58 174.719L100.8 174.179L100.42 174.279H100.02ZM98.78 167.759V168.219C98 169.259 96.16 170.819 94.6 171.679C94.98 172.019 95.62 172.699 95.92 173.139C97.84 172.079 99.94 170.379 101.42 168.879L99.86 167.619L99.36 167.759H98.78ZM94.52 175.019V183.239C94.52 183.539 94.4 183.619 94.06 183.619C93.7 183.619 92.44 183.619 91.36 183.579C91.68 184.199 92.06 185.199 92.16 185.859C93.78 185.859 94.98 185.839 95.82 185.479C96.68 185.139 96.94 184.499 96.94 183.299V175.019H94.52ZM88.08 167.059C87 169.919 85.14 172.759 83.24 174.559C83.64 175.139 84.28 176.459 84.48 177.019C86.76 174.759 88.96 171.179 90.32 167.779L88.08 167.059ZM86.16 172.599V185.759H88.44V170.339L88.42 170.319L86.16 172.599ZM108.08 169.739H117.84V176.379H108.08V169.739ZM105.72 167.759V178.359H120.36V167.759H105.72ZM112.18 173.839C113.36 174.619 114.98 175.719 115.78 176.419L117.12 175.079C116.26 174.399 114.6 173.339 113.44 172.659L112.18 173.839ZM108.98 171.099V172.839H116.92V171.099H108.98ZM111.94 169.959C111.86 172.859 111.54 174.239 108.66 174.999C109.04 175.339 109.52 176.039 109.68 176.479C113.26 175.519 113.82 173.559 113.92 169.959H111.94ZM108.92 179.559V182.719C108.92 184.819 109.5 185.499 112.04 185.499C112.52 185.499 114.56 185.499 115.08 185.499C117.02 185.499 117.66 184.859 117.94 182.319C117.28 182.159 116.3 181.819 115.8 181.459C115.72 183.119 115.58 183.359 114.86 183.359C114.36 183.359 112.72 183.359 112.32 183.359C111.44 183.359 111.3 183.299 111.3 182.699V179.559H108.92ZM110.34 178.659C111.58 179.439 113.02 180.639 113.64 181.499L115.44 179.999C114.74 179.119 113.24 178.019 112 177.319L110.34 178.659ZM116.92 180.379C118.32 181.759 119.72 183.679 120.22 185.019L122.38 183.859C121.82 182.459 120.32 180.639 118.92 179.339L116.92 180.379ZM106.18 179.519C105.74 181.199 104.86 182.799 103.52 183.799L105.54 185.139C107.02 183.959 107.8 182.099 108.34 180.239L106.18 179.519Z" fill="black"/>
<g filter="url(#filter0_f_122_189)">
<path d="M95.7007 59.9202C73.6094 59.9202 55.7007 77.8289 55.7007 99.9202C55.7007 122.012 73.6094 139.92 95.7007 139.92C117.792 139.92 135.701 122.012 135.701 99.9202C135.701 77.8289 117.792 59.9202 95.7007 59.9202ZM120.214 124.433C114.135 130.493 106.019 134.073 97.445 134.476C88.8713 134.878 80.4548 132.074 73.8356 126.61C67.2163 121.146 62.8685 113.414 61.6392 104.919C60.4099 96.4243 62.3872 87.7762 67.1859 80.6598C71.9846 73.5435 79.2608 68.4685 87.5969 66.4239C95.9329 64.3793 104.732 65.5115 112.279 69.5999C119.825 73.6883 125.58 80.4399 128.421 88.5393C131.261 96.6387 130.985 105.506 127.645 113.412C125.905 117.532 123.381 121.275 120.214 124.433Z" fill="black" fill-opacity="0.8"/>
<path d="M85.0343 90.5869H78.3677V97.2536H85.0343V90.5869Z" fill="black" fill-opacity="0.8"/>
<path d="M113.034 90.5869H106.367V97.2536H113.034V90.5869Z" fill="black" fill-opacity="0.8"/>
<path d="M109.416 108.454C108.384 111.057 106.592 113.288 104.274 114.858C101.955 116.428 99.2174 117.263 96.4175 117.254H94.9841C92.1841 117.263 89.4463 116.428 87.1276 114.858C84.809 113.289 83.0171 111.057 81.9855 108.454L81.7723 107.92H76.0288L77.0341 110.434C78.4691 114.021 80.9461 117.096 84.1456 119.263C87.3451 121.429 91.1203 122.587 94.9841 122.587H96.4175C100.281 122.587 104.057 121.429 107.256 119.263C110.455 117.096 112.932 114.021 114.367 110.434L115.373 107.92H109.629L109.416 108.454Z" fill="black" fill-opacity="0.8"/>
</g>
<path d="M98.0112 56.5371C75.9199 56.5371 58.0112 74.4458 58.0112 96.5371C58.0112 118.628 75.9199 136.537 98.0112 136.537C120.103 136.537 138.011 118.628 138.011 96.5371C138.011 74.4458 120.103 56.5371 98.0112 56.5371ZM122.524 121.05C116.446 127.11 108.329 130.69 99.7555 131.093C91.1818 131.495 82.7654 128.691 76.1461 123.227C69.5269 117.763 65.179 110.03 63.9497 101.536C62.7204 93.0412 64.6977 84.3931 69.4964 77.2767C74.2951 70.1603 81.5714 65.0854 89.9074 63.0408C98.2435 60.9962 107.042 62.1284 114.589 66.2168C122.136 70.3051 127.89 77.0568 130.731 85.1562C133.572 93.2556 133.296 102.123 129.956 110.029C128.215 114.149 125.691 117.892 122.524 121.05Z" fill="white"/>
<path d="M87.3449 87.2037H80.6782V93.8704H87.3449V87.2037Z" fill="white"/>
<path d="M115.344 87.2037H108.678V93.8704H115.344V87.2037Z" fill="white"/>
<path d="M111.726 105.07C110.695 107.673 108.903 109.905 106.584 111.475C104.266 113.045 101.528 113.879 98.728 113.87H97.2947C94.4947 113.88 91.7569 113.045 89.4382 111.475C87.1195 109.905 85.3276 107.674 84.296 105.07L84.0829 104.537H78.3394L79.3447 107.051C80.7797 110.638 83.2567 113.713 86.4562 115.88C89.6557 118.046 93.4308 119.204 97.2947 119.204H98.728C102.592 119.204 106.367 118.046 109.567 115.88C112.766 113.713 115.243 110.638 116.678 107.051L117.683 104.537H111.939L111.726 105.07Z" fill="white"/>
<defs>
<filter id="filter0_f_122_189" x="45.7007" y="49.9202" width="100" height="100" filterUnits="userSpaceOnUse" color-interpolation-filters="sRGB">
<feFlood flood-opacity="0" result="BackgroundImageFix"/>
<feBlend mode="normal" in="SourceGraphic" in2="BackgroundImageFix" result="shape"/>
<feGaussianBlur stdDeviation="5" result="effect1_foregroundBlur_122_189"/>
</filter>
</defs>
</svg>
