<svg width="887" height="768" viewBox="0 0 887 768" fill="none" xmlns="http://www.w3.org/2000/svg">
<circle cx="818.301" cy="699.301" r="50" transform="rotate(60 818.301 699.301)" fill="#24266F"/>
<path d="M781.638 700.043C781.638 719.373 797.308 735.043 816.638 735.043C835.968 735.043 851.638 719.373 851.638 700.043C851.638 680.713 835.968 665.043 816.638 665.043C797.308 665.043 781.638 680.713 781.638 700.043ZM838.087 678.594C843.389 683.913 846.521 691.015 846.873 698.517C847.225 706.019 844.772 713.384 839.99 719.175C835.209 724.967 828.443 728.771 821.01 729.847C813.577 730.922 806.01 729.192 799.783 724.993C793.557 720.794 789.116 714.427 787.328 707.132C785.539 699.838 786.53 692.139 790.107 685.536C793.685 678.933 799.593 673.898 806.68 671.412C813.767 668.927 821.526 669.169 828.444 672.092C832.049 673.615 835.323 675.823 838.087 678.594V678.594Z" fill="black"/>
<path d="M803.359 702.466L814.304 691.521L814.304 718.726L818.971 718.726L818.971 691.521L829.916 702.466L833.216 699.166L816.638 682.588L800.059 699.166L803.359 702.466Z" fill="black"/>
<circle cx="93.3013" cy="384.301" r="50" transform="rotate(120 93.3013 384.301)" fill="#4DE0AE"/>
<path d="M74.327 352.921C57.5868 362.586 51.8511 383.991 61.5161 400.732C71.1811 417.472 92.5868 423.207 109.327 413.543C126.067 403.878 131.803 382.472 122.138 365.732C112.473 348.991 91.0675 343.256 74.327 352.921ZM121.127 391.082C119.172 398.334 114.587 404.598 108.266 408.654C101.945 412.709 94.3409 414.267 86.9345 413.022C79.5281 411.777 72.8504 407.819 68.2027 401.92C63.5549 396.021 61.27 388.602 61.7931 381.11C62.3163 373.618 65.61 366.589 71.0326 361.393C76.4551 356.197 83.618 353.206 91.1255 353.002C98.633 352.799 105.947 355.398 111.643 360.293C117.339 365.188 121.009 372.028 121.937 379.481C122.42 383.364 122.145 387.304 121.127 391.082V391.082Z" fill="black"/>
<path d="M83.0897 372.943L98.0413 376.95L74.4805 390.552L76.8138 394.594L100.375 380.991L96.3684 395.943L100.876 397.15L106.944 374.504L84.2975 368.436L83.0897 372.943Z" fill="black"/>
<circle cx="729.301" cy="93.3013" r="50" fill="#D24520"/>
<path d="M711.612 125.424C728.352 135.089 749.758 129.353 759.423 112.613C769.088 95.8726 763.352 74.467 746.612 64.8021C729.872 55.1371 708.466 60.8727 698.801 77.6129C689.136 94.3531 694.872 115.759 711.612 125.424ZM721.261 65.8132C728.518 63.8805 736.235 64.7189 742.908 68.1651C749.581 71.6113 754.732 77.4184 757.357 84.4549C759.982 91.4915 759.894 99.2533 757.109 106.228C754.324 113.203 749.041 118.891 742.292 122.184C735.542 125.477 727.808 126.139 720.596 124.041C713.385 121.943 707.213 117.235 703.283 110.835C699.353 104.435 697.947 96.8013 699.338 89.421C700.729 82.0407 704.818 75.4427 710.809 70.9126C713.93 68.5525 717.48 66.8207 721.261 65.8132V65.8132Z" fill="black"/>
<path d="M724.571 107.824L720.565 92.8723L744.126 106.475L746.459 102.434L722.898 88.8309L737.85 84.8245L736.642 80.317L713.995 86.3851L720.063 109.032L724.571 107.824Z" fill="black"/>
</svg>
