<svg width="186" height="273" viewBox="0 0 186 273" fill="none" xmlns="http://www.w3.org/2000/svg">
<rect x="0.627441" y="0.603943" width="184.574" height="271.176" rx="14.5" fill="#4DE0AE" fill-opacity="0.3" stroke="white"/>
<path d="M18.6216 39.9662C18.6216 31.6819 25.3373 24.9662 33.6216 24.9662L153.622 24.9662C161.906 24.9662 168.622 31.6819 168.622 39.9662L168.622 229.966C168.622 238.25 161.906 244.966 153.622 244.966L33.6216 244.966C25.3373 244.966 18.6216 238.25 18.6216 229.966L18.6216 39.9662Z" fill="white"/>
<path d="M17.8672 41.1909C17.8672 32.9066 24.5829 26.1909 32.8672 26.1909L152.867 26.1909C161.151 26.1909 167.867 32.9066 167.867 41.1909L167.867 231.191C167.867 239.475 161.151 246.191 152.867 246.191L32.8672 246.191C24.5829 246.191 17.8672 239.475 17.8672 231.191L17.8672 41.1909Z" fill="#4DE0AE"/>
<path d="M75.2517 184.968V199.064H76.2277V186.024H78.0357V184.968H75.2517ZM77.8117 184.968V185.064C77.5557 186.408 77.1717 188.2 76.6917 190.04C77.5717 191.56 77.9237 192.536 77.9237 193.448C77.9237 193.992 77.8597 194.552 77.6517 194.728C77.5557 194.808 77.4117 194.84 77.2517 194.84C77.0597 194.856 76.7877 194.856 76.5157 194.824C76.6757 195.096 76.7717 195.512 76.7877 195.8C77.0757 195.8 77.4117 195.8 77.6357 195.768C77.9077 195.736 78.1637 195.64 78.3397 195.48C78.7237 195.16 78.8997 194.344 78.8997 193.48C78.8997 192.488 78.5157 191.416 77.6197 189.912C78.0837 188.264 78.5157 186.632 78.8357 185.304L78.0997 184.92L77.9717 184.968H77.8117ZM71.4437 185.64V186.808H73.3477V193.656H71.4437V194.824H74.3237V185.64H71.4437ZM70.9477 185.64V196.392H71.8917V185.64H70.9477ZM79.0917 185.112V186.264H85.1237V185.112H79.0917ZM79.3637 188.088V195.928H80.2117V189.176H81.8117V188.088H79.3637ZM83.3317 185.48V197.496C83.3317 197.72 83.2677 197.8 83.0277 197.8C82.7717 197.816 81.9717 197.832 81.0757 197.8C81.2517 198.104 81.4437 198.648 81.4757 198.968C82.5797 198.952 83.3157 198.936 83.7477 198.744C84.1957 198.536 84.3237 198.152 84.3237 197.496V185.48H83.3317ZM81.4757 188.088V193.736H79.7637V194.824H82.3557V188.088H81.4757ZM92.1637 185.336V186.504H100.996V185.336H92.1637ZM92.9957 190.712V191.864H101.124V190.712H92.9957ZM97.5237 185.864V197.512C97.5237 197.8 97.4277 197.88 97.1557 197.88C96.8677 197.896 95.8757 197.912 94.8837 197.864C95.0437 198.2 95.2517 198.76 95.3157 199.112C96.6437 199.112 97.5237 199.08 98.0357 198.872C98.5477 198.68 98.7237 198.28 98.7237 197.528V185.864H97.5237ZM93.1877 187.224C92.8997 188.904 92.4037 191.192 92.0197 192.552L93.2517 192.696C93.5877 191.32 94.0837 189.08 94.3877 187.336L93.1877 187.224ZM97.0277 191.208C95.5557 193.688 92.7077 196.088 90.0037 197.208C90.2757 197.464 90.6757 197.912 90.8517 198.216C93.6037 196.92 96.4677 194.408 98.0997 191.656L97.0277 191.208ZM87.6357 185.88V187H90.3557V193.528H87.6357V194.648H91.5077V185.88H87.6357ZM86.9317 185.88V195.88H88.0517V185.88H86.9317ZM108.164 185.336V186.504H116.996V185.336H108.164ZM108.996 190.712V191.864H117.124V190.712H108.996ZM113.524 185.864V197.512C113.524 197.8 113.428 197.88 113.156 197.88C112.868 197.896 111.876 197.912 110.884 197.864C111.044 198.2 111.252 198.76 111.316 199.112C112.644 199.112 113.524 199.08 114.036 198.872C114.548 198.68 114.724 198.28 114.724 197.528V185.864H113.524ZM109.188 187.224C108.9 188.904 108.404 191.192 108.02 192.552L109.252 192.696C109.588 191.32 110.084 189.08 110.388 187.336L109.188 187.224ZM113.028 191.208C111.556 193.688 108.708 196.088 106.004 197.208C106.276 197.464 106.676 197.912 106.852 198.216C109.604 196.92 112.468 194.408 114.1 191.656L113.028 191.208ZM103.636 185.88V187H106.356V193.528H103.636V194.648H107.508V185.88H103.636ZM102.932 185.88V195.88H104.052V185.88H102.932ZM72.0677 210.912V217.312H73.2517V210.912H72.0677ZM68.5477 210.48V211.536H76.8197V210.48H68.5477ZM67.8597 216.592V217.664H77.1717V216.592H67.8597ZM68.9317 213.456V214.496H76.4517V213.456H68.9317ZM70.2757 205.072H75.0917V208.032H70.2757V205.072ZM69.1557 204.032V209.072H76.2597V204.032H69.1557ZM65.1557 204.688V218.048H66.3237V204.688H65.1557ZM62.5317 207.872V209.008H68.3397V207.872H62.5317ZM65.2197 208.304C64.6437 210.288 63.3637 212.784 62.2117 214.064C62.4197 214.336 62.7077 214.832 62.8197 215.168C64.0517 213.68 65.3317 210.88 65.9717 208.624L65.2197 208.304ZM67.5237 203.6C66.3557 204.144 64.2437 204.592 62.4357 204.896C62.5797 205.168 62.7397 205.552 62.8037 205.824C64.6597 205.568 66.8997 205.12 68.3717 204.528L67.5237 203.6ZM66.2757 209.936L65.7157 210.416C66.2117 210.976 67.4117 212.496 67.7957 213.152L68.4997 212.208C68.1797 211.808 66.6757 210.288 66.2757 209.936ZM89.1077 204.16C89.9397 204.736 90.9157 205.6 91.3957 206.176L92.2437 205.424C91.7477 204.864 90.7397 204.032 89.9077 203.472L89.1077 204.16ZM78.6437 206.352V207.52H92.8997V206.352H78.6437ZM79.1877 209.92V211.088H86.2597V209.92H79.1877ZM82.0677 210.544V216.256H83.2677V210.544H82.0677ZM78.7077 216.416L79.0757 217.616C81.1397 217.152 84.0677 216.48 86.8037 215.84L86.7077 214.768C83.7477 215.408 80.6117 216.048 78.7077 216.416ZM86.7877 203.44C86.8517 211.184 88.1477 218.112 91.3317 218.112C92.5637 218.112 93.0277 217.296 93.2357 214.496C92.8997 214.384 92.4357 214.112 92.1637 213.84C92.0677 215.984 91.8757 216.864 91.4277 216.864C89.4597 216.864 88.0197 210.864 88.0677 203.44H86.7877ZM101.7 203.872V205.808C101.7 206.928 101.46 208.256 99.9237 209.248C100.164 209.408 100.628 209.824 100.788 210.048C102.5 208.912 102.852 207.216 102.852 205.824V203.872H101.7ZM105.604 203.872V207.824C105.604 208.96 105.892 209.28 106.868 209.28C107.076 209.28 107.78 209.28 107.988 209.28C108.852 209.28 109.14 208.784 109.236 206.912C108.932 206.832 108.452 206.656 108.228 206.48C108.196 208.016 108.132 208.224 107.86 208.224C107.7 208.224 107.172 208.224 107.044 208.224C106.788 208.224 106.74 208.16 106.74 207.808V203.872H105.604ZM102.564 211.424L101.492 211.76C102.772 214.896 105.156 217.104 108.484 218.08C108.644 217.776 108.996 217.296 109.268 217.04C106.052 216.224 103.668 214.176 102.564 211.424ZM107.044 210.304V210.496C106.084 214.048 103.188 216.208 99.9557 217.024C100.18 217.28 100.484 217.792 100.612 218.08C104.116 217.056 107.124 214.752 108.26 210.56L107.492 210.256L107.284 210.304H107.044ZM100.66 210.304V211.392H107.508V210.304H100.66ZM102.18 203.872V204.944H106.18V203.872H102.18ZM95.1237 208.208V209.168H99.8917V208.208H95.1237ZM95.2037 203.936V204.896H99.8597V203.936H95.2037ZM95.1237 210.352V211.312H99.8917V210.352H95.1237ZM94.3717 206.032V207.024H100.452V206.032H94.3717ZM95.6997 212.512V213.504H98.8357V216.176H95.6997V217.184H99.8917V212.512H95.6997ZM95.1077 212.512V217.92H96.1477V212.512H95.1077ZM116.708 208.848V210.032H125.3V208.848H116.708ZM120.468 203.408V218.08H121.684V203.408H120.468ZM111.124 208.208V209.168H116.116V208.208H111.124ZM111.22 203.936V204.896H116.132V203.936H111.22ZM111.124 210.352V211.312H116.116V210.352H111.124ZM110.372 206.032V207.024H116.74V206.032H110.372ZM111.684 212.512V213.504H114.996V216.176H111.684V217.184H116.068V212.512H111.684ZM111.108 212.512V217.92H112.18V212.512H111.108Z" fill="black"/>
<path d="M73.4837 163.96V166.24H82.7637V163.96H73.4837ZM76.8037 159.8V178.58H79.2037V159.8H76.8037ZM76.7637 165.06C75.9437 168.2 74.1037 171.6 71.9837 173.62C72.4237 174.2 73.0637 175.12 73.3237 175.82C75.6037 173.56 77.4837 169.44 78.5037 165.64L76.7637 165.06ZM79.3637 165.06L77.7637 165.5C78.5637 169.1 79.9437 173.04 81.5837 175.3C82.0037 174.68 82.8037 173.86 83.3837 173.46C81.7037 171.54 80.1637 168.16 79.3637 165.06ZM64.7037 163.96V166.24H72.8637V163.96H64.7037ZM67.9037 159.8V178.58H70.2437V159.8H67.9037ZM67.7637 165.46C67.1437 168.04 65.7237 171.1 64.1637 172.88C64.5437 173.5 65.1237 174.5 65.3637 175.2C67.0837 173.14 68.5437 169.3 69.2837 166L67.7637 165.46ZM70.2037 166.54L68.9437 167.74C69.6837 168.74 71.1637 170.86 71.7837 172.06L73.2837 169.98C72.8437 169.44 70.8037 167.08 70.2037 166.54ZM84.5637 163.58V165.78H91.3037V163.58H84.5637ZM87.0037 159.84V178.62H89.2037V159.84H87.0037ZM86.8237 165.04C86.4237 167.56 85.3637 170.8 84.1637 172.78C84.5437 173.38 85.1437 174.34 85.3837 175.08C86.8237 172.8 87.9437 168.66 88.4837 165.52L86.8237 165.04ZM89.2237 165.54L88.0037 166.64C88.6237 167.92 89.7837 170.5 90.2837 171.98L91.9037 170.02C91.5437 169.34 89.7237 166.22 89.2237 165.54ZM92.1837 163.36V178.5H94.5637V165.64H99.6637V178.36H102.164V163.36H92.1837ZM93.4837 169.22V171.48H100.744V169.22H93.4837ZM93.4837 175.2V177.48H100.744V175.2H93.4837ZM95.8037 159.86C95.6437 161.22 95.2237 163.06 94.8237 164.3L97.0637 164.68C97.5637 163.54 98.1637 161.82 98.6637 160.16L95.8037 159.86ZM115.384 160.88V178.56H117.704V163.12H120.984V160.88H115.384ZM104.524 164.1V166H114.924V164.1H104.524ZM105.324 160.88V162.82H111.644V167.28H105.284V169.2H113.844V160.88H105.324ZM106.664 170.6V178.58H108.864V170.6H106.664ZM107.644 170.6V172.72H111.904V175.46H107.644V177.6H114.084V170.6H107.644ZM107.644 161.94V163.72C107.644 166.36 107.384 170.64 103.964 173.58C104.444 173.98 105.144 174.88 105.444 175.42C109.384 172 109.784 166.86 109.784 163.78V161.94H107.644ZM120.624 160.88V161.72C120.144 163.14 119.164 166.2 118.304 168.14C120.024 169.72 120.524 171.14 120.524 172.26C120.524 172.94 120.384 173.38 120.024 173.58C119.784 173.74 119.504 173.78 119.204 173.8C118.884 173.8 118.464 173.8 117.984 173.76C118.364 174.42 118.564 175.44 118.584 176.1C119.184 176.12 119.804 176.12 120.264 176.06C120.824 175.98 121.304 175.82 121.704 175.54C122.484 175 122.844 174.04 122.844 172.56C122.844 171.22 122.484 169.62 120.704 167.84C121.524 166.12 122.464 163.86 123.204 161.9L121.444 160.8L121.084 160.88H120.624Z" fill="black"/>
<g filter="url(#filter0_f_121_171)">
<path d="M96.4648 55.1933C74.3735 55.1933 56.4648 73.102 56.4648 95.1933C56.4648 117.285 74.3735 135.193 96.4648 135.193C118.556 135.193 136.465 117.285 136.465 95.1933C136.465 73.102 118.556 55.1933 96.4648 55.1933ZM120.978 119.706C114.9 125.766 106.783 129.347 98.2091 129.749C89.6354 130.151 81.219 127.348 74.5997 121.883C67.9805 116.419 63.6326 108.687 62.4033 100.192C61.174 91.6974 63.1514 83.0493 67.95 75.9329C72.7487 68.8165 80.025 63.7416 88.361 61.697C96.6971 59.6524 105.496 60.7846 113.043 64.873C120.59 68.9613 126.344 75.713 129.185 83.8124C132.026 91.9118 131.749 100.779 128.409 108.685C126.669 112.805 124.145 116.548 120.978 119.706Z" fill="black" fill-opacity="0.8"/>
<path d="M85.7985 85.86H79.1318V92.5267H85.7985V85.86Z" fill="black" fill-opacity="0.8"/>
<path d="M113.798 85.86H107.131V92.5267H113.798V85.86Z" fill="black" fill-opacity="0.8"/>
<path d="M110.18 103.727C109.148 106.33 107.356 108.561 105.038 110.131C102.719 111.701 99.9816 112.536 97.1816 112.527H95.7483C92.9483 112.536 90.2105 111.701 87.8918 110.131C85.5731 108.562 83.7812 106.33 82.7496 103.727L82.5365 103.193H76.793L77.7983 105.707C79.2333 109.294 81.7103 112.37 84.9098 114.536C88.1093 116.702 91.8845 117.86 95.7483 117.86H97.1816C101.045 117.86 104.821 116.702 108.02 114.536C111.22 112.37 113.697 109.294 115.132 105.707L116.137 103.193H110.393L110.18 103.727Z" fill="black" fill-opacity="0.8"/>
</g>
<path d="M98.7749 51.8102C76.6836 51.8102 58.7749 69.7188 58.7749 91.8102C58.7749 113.902 76.6836 131.81 98.7749 131.81C120.866 131.81 138.775 113.902 138.775 91.8102C138.775 69.7188 120.866 51.8102 98.7749 51.8102ZM123.288 116.323C117.21 122.383 109.093 125.963 100.519 126.366C91.9455 126.768 83.529 123.964 76.9098 118.5C70.2905 113.036 65.9427 105.304 64.7134 96.8089C63.4841 88.3143 65.4614 79.6662 70.2601 72.5498C75.0588 65.4334 82.335 60.3585 90.6711 58.3139C99.0072 56.2693 107.806 57.4015 115.353 61.4898C122.9 65.5782 128.654 72.3299 131.495 80.4293C134.336 88.5287 134.059 97.3956 130.719 105.302C128.979 109.422 126.455 113.165 123.288 116.323Z" fill="white"/>
<path d="M88.1086 82.4768H81.4419V89.1435H88.1086V82.4768Z" fill="white"/>
<path d="M116.108 82.4768H109.441V89.1435H116.108V82.4768Z" fill="white"/>
<path d="M112.49 100.344C111.458 102.947 109.666 105.178 107.348 106.748C105.029 108.318 102.292 109.153 99.4917 109.144H98.0584C95.2583 109.153 92.5205 108.318 90.2019 106.748C87.8832 105.178 86.0913 102.947 85.0597 100.344L84.8465 99.8102H79.103L80.1084 102.324C81.5433 105.911 84.0204 108.986 87.2198 111.153C90.4193 113.319 94.1945 114.477 98.0584 114.477H99.4917C103.356 114.477 107.131 113.319 110.33 111.153C113.53 108.986 116.007 105.911 117.442 102.324L118.447 99.8102H112.703L112.49 100.344Z" fill="white"/>
<defs>
<filter id="filter0_f_121_171" x="46.4648" y="45.1933" width="100" height="100" filterUnits="userSpaceOnUse" color-interpolation-filters="sRGB">
<feFlood flood-opacity="0" result="BackgroundImageFix"/>
<feBlend mode="normal" in="SourceGraphic" in2="BackgroundImageFix" result="shape"/>
<feGaussianBlur stdDeviation="5" result="effect1_foregroundBlur_121_171"/>
</filter>
</defs>
</svg>
