<svg width="187" height="273" viewBox="0 0 187 273" fill="none" xmlns="http://www.w3.org/2000/svg">
<rect x="1.42773" y="1.08008" width="184.574" height="271.176" rx="14.5" fill="#457897" fill-opacity="0.3" stroke="white"/>
<path d="M19.4219 40.4423C19.4219 32.158 26.1376 25.4423 34.4219 25.4423H154.422C162.706 25.4423 169.422 32.1581 169.422 40.4423V230.442C169.422 238.727 162.706 245.442 154.422 245.442H34.4219C26.1376 245.442 19.4219 238.727 19.4219 230.442V40.4423Z" fill="white"/>
<path d="M19 41.667C19 33.3828 25.7157 26.6671 34 26.6671H154C162.284 26.6671 169 33.3828 169 41.6671V231.667C169 239.951 162.284 246.667 154 246.667H34C25.7157 246.667 19 239.951 19 231.667V41.667Z" fill="#457897"/>
<path d="M63.936 190.096V191.2H66.384V197.92H63.936V199.04H67.504V190.096H63.936ZM63.232 190.096V200.576H64.352V190.096H63.232ZM68.912 189.6V200.736C68.912 202.544 69.488 202.976 71.28 202.976C71.696 202.976 74.768 202.976 75.2 202.976C76.88 202.976 77.264 202.24 77.456 200.048C77.12 199.984 76.64 199.792 76.352 199.584C76.224 201.408 76.064 201.856 75.152 201.856C74.512 201.856 71.84 201.856 71.328 201.856C70.272 201.856 70.096 201.664 70.096 200.752V189.6H68.912ZM69.488 189.6V190.72H75.648V198.016H76.816V189.6H69.488ZM69.456 195.888V196.992H76.08V195.888H69.456ZM72.272 190V196.24H73.376V190H72.272ZM89.552 188.608V192.048H90.688V188.608H89.552ZM87.408 191.488V192.56H93.104V191.488H87.408ZM87.76 193.648C88.208 196.08 88.512 199.248 88.544 201.056L89.584 200.768C89.568 199.024 89.2 195.92 88.72 193.456L87.76 193.648ZM91.504 193.264C91.296 195.584 90.832 198.912 90.384 200.864L91.312 201.104C91.792 199.152 92.304 195.936 92.624 193.488L91.504 193.264ZM86.688 201.68V202.752H93.36V201.68H86.688ZM79.744 190.256V191.344H81.824V197.92H79.744V199.024H82.848V190.256H79.744ZM79.104 190.256V200.4H80.128V190.256H79.104ZM83.136 191.84V192.912H87.056V191.84H83.136ZM82.928 196.992L83.296 198.096C84.448 197.632 85.872 197.024 87.216 196.448L87.024 195.472C85.52 196.048 83.984 196.64 82.928 196.992ZM84.64 188.608V201.936C84.64 202.144 84.592 202.192 84.4 202.208C84.208 202.208 83.664 202.208 83.04 202.192C83.2 202.512 83.344 203.008 83.376 203.28C84.272 203.296 84.848 203.248 85.2 203.056C85.568 202.88 85.712 202.56 85.712 201.936V188.608H84.64ZM95.936 190.096V191.2H98.384V197.92H95.936V199.04H99.504V190.096H95.936ZM95.232 190.096V200.576H96.352V190.096H95.232ZM100.912 189.6V200.736C100.912 202.544 101.488 202.976 103.28 202.976C103.696 202.976 106.768 202.976 107.2 202.976C108.88 202.976 109.264 202.24 109.456 200.048C109.12 199.984 108.64 199.792 108.352 199.584C108.224 201.408 108.064 201.856 107.152 201.856C106.512 201.856 103.84 201.856 103.328 201.856C102.272 201.856 102.096 201.664 102.096 200.752V189.6H100.912ZM101.488 189.6V190.72H107.648V198.016H108.816V189.6H101.488ZM101.456 195.888V196.992H108.08V195.888H101.456ZM104.272 190V196.24H105.376V190H104.272ZM121.552 188.608V192.048H122.688V188.608H121.552ZM119.408 191.488V192.56H125.104V191.488H119.408ZM119.76 193.648C120.208 196.08 120.512 199.248 120.544 201.056L121.584 200.768C121.568 199.024 121.2 195.92 120.72 193.456L119.76 193.648ZM123.504 193.264C123.296 195.584 122.832 198.912 122.384 200.864L123.312 201.104C123.792 199.152 124.304 195.936 124.624 193.488L123.504 193.264ZM118.688 201.68V202.752H125.36V201.68H118.688ZM111.744 190.256V191.344H113.824V197.92H111.744V199.024H114.848V190.256H111.744ZM111.104 190.256V200.4H112.128V190.256H111.104ZM115.136 191.84V192.912H119.056V191.84H115.136ZM114.928 196.992L115.296 198.096C116.448 197.632 117.872 197.024 119.216 196.448L119.024 195.472C117.52 196.048 115.984 196.64 114.928 196.992ZM116.64 188.608V201.936C116.64 202.144 116.592 202.192 116.4 202.208C116.208 202.208 115.664 202.208 115.04 202.192C115.2 202.512 115.344 203.008 115.376 203.28C116.272 203.296 116.848 203.248 117.2 203.056C117.568 202.88 117.712 202.56 117.712 201.936V188.608H116.64ZM63.104 218.024V218.936H70.4V218.024H63.104ZM62.672 210.312V211.24H70.656V210.312H62.672ZM66.144 208.856V220.632H67.248V208.856H66.144ZM62.656 220.664L62.832 221.704C64.864 221.496 67.76 221.16 70.48 220.84L70.464 219.896C67.6 220.2 64.608 220.488 62.656 220.664ZM64.144 215.032H69.328V216.216H64.144V215.032ZM64.144 213.08H69.328V214.232H64.144V213.08ZM63.136 212.248V217.048H70.352V212.248H63.136ZM69.776 207.72C68.128 208.104 65.216 208.392 62.832 208.52C62.96 208.76 63.072 209.16 63.12 209.416C65.52 209.336 68.496 209.064 70.384 208.648L69.776 207.72ZM70.544 211.304V212.424H76.32V211.304H70.544ZM75.856 211.304V211.592C75.68 218.072 75.504 220.376 75.104 220.872C74.96 221.08 74.8 221.128 74.544 221.128C74.224 221.128 73.52 221.112 72.736 221.048C72.928 221.368 73.056 221.864 73.088 222.2C73.824 222.248 74.592 222.248 75.04 222.2C75.52 222.152 75.84 222.008 76.128 221.592C76.656 220.904 76.816 218.664 76.992 211.912C76.992 211.752 77.008 211.304 77.008 211.304H75.856ZM72.48 207.768C72.464 213.816 72.544 218.888 68.88 221.512C69.168 221.704 69.584 222.088 69.776 222.376C73.6 219.512 73.616 214.136 73.632 207.768H72.48ZM85.376 216.696V219.912H86.496V216.696H85.376ZM78.816 220.968V221.832H93.2V220.968H78.816ZM78.848 210.12V210.872H93.152V210.12H78.848ZM78.816 214.92V215.768H93.2V214.92H78.816ZM80.048 213.336V214.088H92.048V213.336H80.048ZM80.544 208.552V209.304H90.208V211.752H80.448V212.504H91.408V208.552H80.544ZM85.328 207.56V215.256H86.544V207.56H85.328ZM81.824 218.664H90.224V219.512H81.824V218.664ZM81.824 217.176H90.224V217.992H81.824V217.176ZM80.64 216.456V220.216H91.44V216.456H80.64ZM101.936 208.072V210.008C101.936 211.128 101.696 212.456 100.16 213.448C100.4 213.608 100.864 214.024 101.024 214.248C102.736 213.112 103.088 211.416 103.088 210.024V208.072H101.936ZM105.84 208.072V212.024C105.84 213.16 106.128 213.48 107.104 213.48C107.312 213.48 108.016 213.48 108.224 213.48C109.088 213.48 109.376 212.984 109.472 211.112C109.168 211.032 108.688 210.856 108.464 210.68C108.432 212.216 108.368 212.424 108.096 212.424C107.936 212.424 107.408 212.424 107.28 212.424C107.024 212.424 106.976 212.36 106.976 212.008V208.072H105.84ZM102.8 215.624L101.728 215.96C103.008 219.096 105.392 221.304 108.72 222.28C108.88 221.976 109.232 221.496 109.504 221.24C106.288 220.424 103.904 218.376 102.8 215.624ZM107.28 214.504V214.696C106.32 218.248 103.424 220.408 100.192 221.224C100.416 221.48 100.72 221.992 100.848 222.28C104.352 221.256 107.36 218.952 108.496 214.76L107.728 214.456L107.52 214.504H107.28ZM100.896 214.504V215.592H107.744V214.504H100.896ZM102.416 208.072V209.144H106.416V208.072H102.416ZM95.36 212.408V213.368H100.128V212.408H95.36ZM95.44 208.136V209.096H100.096V208.136H95.44ZM95.36 214.552V215.512H100.128V214.552H95.36ZM94.608 210.232V211.224H100.688V210.232H94.608ZM95.936 216.712V217.704H99.072V220.376H95.936V221.384H100.128V216.712H95.936ZM95.344 216.712V222.12H96.384V216.712H95.344ZM116.944 213.048V214.232H125.536V213.048H116.944ZM120.704 207.608V222.28H121.92V207.608H120.704ZM111.36 212.408V213.368H116.352V212.408H111.36ZM111.456 208.136V209.096H116.368V208.136H111.456ZM111.36 214.552V215.512H116.352V214.552H111.36ZM110.608 210.232V211.224H116.976V210.232H110.608ZM111.92 216.712V217.704H115.232V220.376H111.92V221.384H116.304V216.712H111.92ZM111.344 216.712V222.12H112.416V216.712H111.344Z" fill="black"/>
<path d="M65.78 176.52V178.12H75.52V176.52H65.78ZM67.76 174.18V175.72H73.66V174.18H67.76ZM65.04 180.62L65.38 182.48C68.2 182.3 72.28 182.08 76.1 181.8L76.12 180.02C72.1 180.28 67.8 180.5 65.04 180.62ZM66.62 178.58C66.92 179.2 67.2 180.04 67.28 180.58L69.06 180.02C68.96 179.52 68.66 178.7 68.32 178.12L66.62 178.58ZM73.02 178C72.86 178.56 72.56 179.38 72.32 179.94L73.98 180.38C74.26 179.88 74.56 179.2 74.92 178.48L73.02 178ZM70.68 164.82V166.68H75.06V164.82H70.68ZM65.32 164.88V170.42H67.32V165.5L65.32 164.88ZM74.54 164.82V165.1C74.44 168.24 74.34 169.3 74.16 169.6C74.04 169.78 73.92 169.8 73.72 169.8C73.56 169.8 73.3 169.8 72.92 169.74C73.16 170.22 73.34 171.02 73.36 171.58C73.92 171.62 74.42 171.58 74.76 171.52C75.18 171.44 75.46 171.3 75.74 170.92C76.14 170.42 76.26 168.96 76.38 165.56C76.4 165.3 76.42 164.82 76.42 164.82H74.54ZM64.52 170.18L65.34 172.1C66.76 171.48 68.46 170.72 70.1 170L69.72 168.34C67.78 169.06 65.84 169.78 64.52 170.18ZM69.18 164C68.42 164.62 67.14 165.32 65.98 165.78C66.22 166.16 66.5 166.8 66.6 167.2C67.96 166.76 69.52 166.14 70.74 165.38L69.18 164ZM68.16 167.46C68.82 168.5 69.52 169.9 69.76 170.84L71.3 170.02C71.02 169.1 70.32 167.74 69.6 166.72L68.16 167.46ZM76.86 166.22V177.24H79.04V166.22H76.86ZM80.44 164.4V180C80.44 180.32 80.32 180.42 79.98 180.42C79.66 180.42 78.64 180.42 77.6 180.4C77.92 181.06 78.22 182.1 78.32 182.74C79.9 182.76 81.02 182.66 81.74 182.28C82.44 181.9 82.7 181.26 82.7 180V164.4H80.44ZM69.62 174.98V180.88H71.74V174.98H69.62ZM71.6 165.84V166.58C71.6 167.62 71.44 169.08 70.1 170.08C70.56 170.32 71.24 170.86 71.54 171.24C73.08 169.92 73.26 168.08 73.26 166.66V165.84H71.6ZM69.54 171.02C68.5 172.18 66.72 173.4 64.28 174.26C64.7 174.64 65.34 175.46 65.6 175.98C68.36 174.78 70.22 173.4 71.52 172.16V171.48H70.8V171.02H69.54ZM69.72 171.02V172.72H70.24C71.84 173.42 73.84 174.72 74.92 175.62L76.4 173.86C75.18 172.92 73 171.76 71.28 171.02H69.72ZM95.62 166.5H99.86V168.38H95.62V166.5ZM93.46 164.68V170.2H102.14V164.68H93.46ZM92.9 171.24V182.8H95.16V173.3H101.48V171.24H92.9ZM100.4 171.24V180.36C100.4 180.6 100.32 180.68 100.08 180.68C99.84 180.7 99.08 180.7 98.38 180.66C98.7 181.24 99.02 182.2 99.12 182.82C100.34 182.82 101.22 182.78 101.88 182.42C102.56 182.06 102.72 181.44 102.72 180.42V171.24H100.4ZM94.16 174.38V176.26H101.5V174.38H94.16ZM94.16 177.38V179.28H101.5V177.38H94.16ZM84.64 168V170.2H90.72V168H84.64ZM87 164.02C86.46 167.96 85.52 173.14 84.74 176.24L86.66 177.38C87.54 173.76 88.58 168.46 89.28 164.24L87 164.02ZM85.6 175.74C87.52 177.3 89.92 179.58 90.98 181.12L92.52 179.18C91.42 177.68 88.92 175.54 87.02 174.06L85.6 175.74ZM89.88 168V168.42C89.6 174.86 88 179.18 84.72 180.88C85.2 181.36 85.8 182.22 86.12 182.82C90 180.44 91.7 176.08 92.06 168.12L90.68 167.96L90.28 168H89.88ZM112.96 164.78V166.96H120.92V164.78H112.96ZM112.44 171.38V173.58H121.5V171.38H112.44ZM120.16 164.78V165.26C119.56 166.36 118.16 168.1 116.94 169.06C117.32 169.4 118 170.08 118.32 170.54C119.92 169.36 121.64 167.46 122.84 165.84L121.28 164.64L120.76 164.78H120.16ZM114.14 169.06C115.82 169.94 117.8 171.38 118.84 172.48L120.36 170.76C119.28 169.74 117.32 168.38 115.6 167.54L114.14 169.06ZM121.04 171.38V171.72C120.62 173.26 119.92 175.18 119.36 176.36L121.32 177.02C122.02 175.68 122.84 173.64 123.48 171.8L121.78 171.28L121.4 171.38H121.04ZM116.2 172.6V180.08C116.2 180.36 116.08 180.42 115.78 180.42C115.46 180.44 114.3 180.44 113.34 180.4C113.66 181.04 114 182.12 114.08 182.8C115.6 182.8 116.74 182.8 117.54 182.4C118.36 182.02 118.58 181.34 118.58 180.14V172.6H116.2ZM104.74 168V170.22H111.2V168H104.74ZM107.42 164.02C106.8 168 105.72 173.28 104.86 176.44L106.82 177.48C107.76 173.88 108.92 168.52 109.68 164.26L107.42 164.02ZM105.9 176.1C108 177.48 110.54 179.58 111.66 181.1L113.1 179.16C111.94 177.66 109.3 175.72 107.22 174.42L105.9 176.1ZM110.38 168V168.44C109.98 174.76 108.2 179.18 104.8 180.96C105.28 181.42 105.92 182.28 106.24 182.86C110.2 180.4 112.14 175.98 112.6 168.18L111.18 167.94L110.76 168H110.38Z" fill="black"/>
<g filter="url(#filter0_f_122_212)">
<path d="M96.4043 60.0508C74.313 60.0508 56.4043 77.9594 56.4043 100.051C56.4043 122.142 74.313 140.051 96.4043 140.051C118.496 140.051 136.404 122.142 136.404 100.051C136.404 77.9594 118.496 60.0508 96.4043 60.0508ZM120.917 124.564C114.839 130.624 106.722 134.204 98.1486 134.606C89.5749 135.009 81.1584 132.205 74.5392 126.741C67.9199 121.277 63.5721 113.544 62.3428 105.05C61.1135 96.5549 63.0908 87.9068 67.8895 80.7904C72.6882 73.674 79.9644 68.5991 88.3005 66.5545C96.6366 64.5099 105.435 65.6421 112.982 69.7304C120.529 73.8188 126.283 80.5705 129.124 88.6699C131.965 96.7693 131.689 105.636 128.349 113.543C126.608 117.663 124.084 121.406 120.917 124.564Z" fill="black" fill-opacity="0.8"/>
<path d="M85.738 90.7174H79.0713V97.3841H85.738V90.7174Z" fill="black" fill-opacity="0.8"/>
<path d="M113.737 90.7174H107.071V97.3841H113.737V90.7174Z" fill="black" fill-opacity="0.8"/>
<path d="M110.119 108.584C109.088 111.187 107.296 113.419 104.977 114.989C102.659 116.558 99.921 117.393 97.1211 117.384H95.6878C92.8877 117.393 90.1499 116.559 87.8313 114.989C85.5126 113.419 83.7207 111.187 82.6891 108.584L82.4759 108.051H76.7324L77.7378 110.564C79.1727 114.152 81.6498 117.227 84.8492 119.393C88.0487 121.559 91.8239 122.717 95.6878 122.717H97.1211C100.985 122.717 104.76 121.559 107.96 119.393C111.159 117.227 113.636 114.152 115.071 110.564L116.076 108.051H110.332L110.119 108.584Z" fill="black" fill-opacity="0.8"/>
</g>
<path d="M98.7148 56.6676C76.6235 56.6676 58.7148 74.5763 58.7148 96.6676C58.7148 118.759 76.6235 136.668 98.7148 136.668C120.806 136.668 138.715 118.759 138.715 96.6676C138.715 74.5763 120.806 56.6676 98.7148 56.6676ZM123.228 121.181C117.15 127.241 109.033 130.821 100.459 131.223C91.8854 131.626 83.469 128.822 76.8497 123.358C70.2305 117.894 65.8826 110.161 64.6533 101.666C63.424 93.1717 65.4014 84.5236 70.2 77.4072C74.9987 70.2908 82.275 65.2159 90.611 63.1713C98.9471 61.1267 107.746 62.2589 115.293 66.3473C122.84 70.4356 128.594 77.1873 131.435 85.2867C134.276 93.3861 133.999 102.253 130.659 110.16C128.919 114.28 126.395 118.023 123.228 121.181Z" fill="white"/>
<path d="M88.0485 87.3342H81.3818V94.0009H88.0485V87.3342Z" fill="white"/>
<path d="M116.048 87.3342H109.381V94.0009H116.048V87.3342Z" fill="white"/>
<path d="M112.43 105.201C111.398 107.804 109.606 110.036 107.288 111.605C104.969 113.175 102.232 114.01 99.4316 114.001H97.9983C95.1983 114.01 92.4605 113.175 90.1418 111.606C87.8231 110.036 86.0312 107.804 84.9996 105.201L84.7865 104.668H79.043L80.0483 107.181C81.4833 110.769 83.9603 113.844 87.1598 116.01C90.3593 118.176 94.1345 119.334 97.9983 119.334H99.4316C103.295 119.334 107.071 118.176 110.27 116.01C113.47 113.844 115.947 110.769 117.382 107.181L118.387 104.668H112.643L112.43 105.201Z" fill="white"/>
<defs>
<filter id="filter0_f_122_212" x="46.4043" y="50.0508" width="100" height="100" filterUnits="userSpaceOnUse" color-interpolation-filters="sRGB">
<feFlood flood-opacity="0" result="BackgroundImageFix"/>
<feBlend mode="normal" in="SourceGraphic" in2="BackgroundImageFix" result="shape"/>
<feGaussianBlur stdDeviation="5" result="effect1_foregroundBlur_122_212"/>
</filter>
</defs>
</svg>
